<?xml version="1.0" standalone="no"?>
<!DOCTYPE svg PUBLIC "-//W3C//DTD SVG 20010904//EN"
 "http://www.w3.org/TR/2001/REC-SVG-20010904/DTD/svg10.dtd">
<svg version="1.0" xmlns="http://www.w3.org/2000/svg"
 width="256.000000pt" height="256.000000pt" viewBox="0 0 256.000000 256.000000"
 preserveAspectRatio="xMidYMid meet">
<metadata>
Created by potrace 1.14, written by Peter Selinger 2001-2017
</metadata>
<g transform="translate(0.000000,256.000000) scale(0.100000,-0.100000)"
fill="#000000" stroke="none">
<path d="M203 2540 c4 -16 0 -20 -24 -21 -44 -2 -49 -3 -49 -11 0 -5 0 -11 0
-14 0 -4 6 -1 13 5 10 8 14 7 14 -3 0 -8 -7 -13 -16 -11 -9 1 -21 -2 -28 -7
-7 -5 -16 -7 -21 -5 -4 3 -9 -10 -10 -30 -4 -46 -10 -57 -28 -42 -12 10 -14 2
-15 -47 -3 -157 -4 -2108 -1 -2153 3 -41 7 -50 17 -41 17 14 24 3 26 -41 2
-23 8 -35 18 -36 48 -4 64 -14 47 -30 -5 -4 -7 -3 -3 3 3 6 0 11 -7 11 -22 0
-14 -23 8 -24 41 -2 103 -23 68 -23 -7 0 -12 -5 -12 -10 0 -12 22 -9 32 5 5 6
8 5 8 -2 0 -10 217 -13 1051 -13 837 0 1049 3 1043 13 -5 7 0 6 11 -3 17 -14
18 -13 12 3 -3 9 -2 18 3 18 6 1 14 2 20 3 5 0 15 10 23 20 11 15 16 16 22 6
5 -9 4 -11 -3 -6 -7 4 -12 2 -12 -3 0 -6 7 -11 16 -11 11 0 15 6 11 20 -5 18
7 26 35 21 5 0 9 10 9 24 2 45 4 48 19 52 9 3 11 1 5 -4 -15 -12 -16 -30 -1
-30 8 0 14 17 15 46 2 25 3 51 4 58 0 7 4 10 9 7 4 -3 8 3 8 13 0 15 2 15 9 4
7 -11 9 -5 8 20 -2 18 -6 40 -11 48 -7 10 -5 12 3 6 16 -9 13 52 -3 74 -9 11
-8 13 2 7 11 -6 13 -1 11 25 -2 19 -8 40 -13 48 -9 11 -8 13 2 7 11 -6 13 -1
11 25 -2 19 -8 40 -13 48 -9 11 -8 13 2 7 11 -6 13 -1 11 25 -2 19 -8 40 -13
48 -9 11 -8 13 2 7 11 -6 13 -1 11 25 -2 19 -8 40 -13 48 -9 11 -8 13 2 7 11
-6 13 -1 11 25 -2 19 -8 40 -13 48 -9 11 -8 13 2 7 11 -6 13 -1 11 25 -2 19
-8 40 -13 48 -9 11 -8 13 2 7 11 -6 13 -1 11 25 -2 19 -8 40 -13 48 -9 11 -8
13 2 7 11 -6 13 -1 11 25 -2 19 -8 40 -13 48 -9 11 -8 13 2 7 11 -6 13 -1 11
25 -2 19 -8 40 -13 48 -9 11 -8 13 2 7 11 -6 13 -1 11 25 -2 19 -8 40 -13 48
-9 11 -8 13 2 7 11 -6 13 -1 11 25 -2 19 -8 40 -13 48 -9 11 -8 13 2 7 11 -6
13 -1 11 25 -2 19 -8 40 -13 48 -9 11 -8 13 2 7 11 -6 13 -1 11 25 -2 19 -8
40 -13 48 -9 11 -8 13 2 7 11 -6 13 -1 11 25 -2 19 -8 40 -13 48 -9 11 -8 13
2 7 11 -6 13 -1 11 25 -2 19 -8 40 -13 48 -9 11 -8 13 2 7 11 -6 13 -1 11 25
-2 19 -8 40 -13 48 -9 11 -8 13 2 7 11 -6 13 -1 11 25 -2 19 -8 40 -13 48 -9
11 -8 13 2 7 11 -6 13 -1 11 25 -2 19 -8 40 -13 48 -9 11 -8 13 2 7 11 -6 13
-1 11 25 -2 19 -8 40 -13 48 -9 11 -8 13 2 7 11 -6 13 -1 11 25 -2 19 -8 40
-13 48 -9 11 -8 13 2 7 11 -6 13 -1 11 25 -2 19 -8 40 -13 48 -9 11 -8 13 2 7
11 -6 13 -1 11 25 -2 19 -8 40 -13 48 -9 11 -8 13 2 7 11 -6 13 -1 11 25 -2
19 -8 40 -13 48 -8 11 -8 13 1 8 9 -6 12 6 10 46 -1 39 -6 53 -15 50 -10 -4
-10 -9 -1 -20 9 -10 9 -17 2 -24 -8 -8 -13 -7 -18 2 -5 8 -4 10 3 5 7 -4 12
-2 12 3 0 6 -4 11 -8 11 -8 0 -14 44 -13 92 0 22 -15 32 -25 17 -4 -8 -3 -9 4
-5 7 4 12 3 12 -2 0 -6 -6 -12 -13 -15 -8 -3 -14 4 -15 19 -3 48 -6 54 -16 53
-27 -3 -34 2 -28 24 5 20 4 21 -13 7 -11 -9 -16 -10 -11 -2 5 8 -2 12 -26 13
-18 0 -27 3 -21 6 10 3 9 8 -1 19 -13 12 -172 14 -1091 14 -1069 0 -1077 0
-1072 -20z m32 -8 c-3 -3 -11 0 -18 7 -9 10 -8 11 6 5 10 -3 15 -9 12 -12z
m-115 -76 c0 -2 -7 -7 -16 -10 -8 -3 -12 -2 -9 4 6 10 25 14 25 6z m-5 -2346
c3 -6 -1 -7 -9 -4 -18 7 -21 14 -7 14 6 0 13 -4 16 -10z"/>
<path d="M5 2270 c0 -26 5 -47 10 -47 6 0 11 11 11 24 0 13 -3 23 -6 23 -4 0
-7 7 -7 15 0 8 4 15 9 15 4 0 8 4 8 8 0 5 -6 9 -13 9 -8 0 -12 -16 -12 -47z"/>
<path d="M9 2208 c0 -2 -2 -26 -3 -54 -1 -34 2 -51 10 -51 13 0 13 15 1 35 -5
7 -3 12 5 12 9 0 9 3 -2 10 -8 5 -10 10 -5 10 6 0 11 9 12 20 1 11 -2 20 -8
20 -5 0 -9 -1 -10 -2z"/>
<path d="M9 2088 c0 -2 -2 -26 -3 -54 -1 -34 2 -51 10 -51 13 0 13 15 1 35 -5
7 -3 12 5 12 9 0 9 3 -2 10 -8 5 -10 10 -5 10 6 0 11 9 12 20 1 11 -2 20 -8
20 -5 0 -9 -1 -10 -2z"/>
<path d="M9 1968 c0 -2 -2 -26 -3 -54 -1 -34 2 -51 10 -51 13 0 13 15 1 35 -5
7 -3 12 5 12 9 0 9 3 -2 10 -8 5 -10 10 -5 10 6 0 11 9 12 20 1 11 -2 20 -8
20 -5 0 -9 -1 -10 -2z"/>
<path d="M9 1848 c0 -2 -2 -26 -3 -54 -1 -34 2 -51 10 -51 13 0 13 15 1 35 -5
7 -3 12 5 12 9 0 9 3 -2 10 -8 5 -10 10 -5 10 6 0 11 9 12 20 1 11 -2 20 -8
20 -5 0 -9 -1 -10 -2z"/>
<path d="M9 1728 c0 -2 -2 -26 -3 -54 -1 -34 2 -51 10 -51 13 0 13 15 1 35 -5
7 -3 12 5 12 9 0 9 3 -2 10 -8 5 -10 10 -5 10 6 0 11 9 12 20 1 11 -2 20 -8
20 -5 0 -9 -1 -10 -2z"/>
<path d="M9 1608 c0 -2 -2 -26 -3 -54 -1 -34 2 -51 10 -51 13 0 13 15 1 35 -5
7 -3 12 5 12 9 0 9 3 -2 10 -8 5 -10 10 -5 10 6 0 11 9 12 20 1 11 -2 20 -8
20 -5 0 -9 -1 -10 -2z"/>
<path d="M9 1488 c0 -2 -2 -26 -3 -54 -1 -34 2 -51 10 -51 13 0 13 15 1 35 -5
7 -3 12 5 12 9 0 9 3 -2 10 -8 5 -10 10 -5 10 6 0 11 9 12 20 1 11 -2 20 -8
20 -5 0 -9 -1 -10 -2z"/>
<path d="M9 1368 c0 -2 -2 -26 -3 -54 -1 -34 2 -51 10 -51 13 0 13 15 1 35 -5
7 -3 12 5 12 9 0 9 3 -2 10 -8 5 -10 10 -5 10 6 0 11 9 12 20 1 11 -2 20 -8
20 -5 0 -9 -1 -10 -2z"/>
<path d="M9 1248 c0 -2 -2 -26 -3 -54 -1 -34 2 -51 10 -51 13 0 13 15 1 35 -5
7 -3 12 5 12 9 0 9 3 -2 10 -8 5 -10 10 -5 10 6 0 11 9 12 20 1 11 -2 20 -8
20 -5 0 -9 -1 -10 -2z"/>
<path d="M9 1128 c0 -2 -2 -26 -3 -54 -1 -34 2 -51 10 -51 13 0 13 15 1 35 -5
7 -3 12 5 12 9 0 9 3 -2 10 -8 5 -10 10 -5 10 6 0 11 9 12 20 1 11 -2 20 -8
20 -5 0 -9 -1 -10 -2z"/>
<path d="M9 1008 c0 -2 -2 -26 -3 -54 -1 -34 2 -51 10 -51 13 0 13 15 1 35 -5
7 -3 12 5 12 9 0 9 3 -2 10 -8 5 -10 10 -5 10 6 0 11 9 12 20 1 11 -2 20 -8
20 -5 0 -9 -1 -10 -2z"/>
<path d="M9 888 c0 -2 -2 -26 -3 -54 -1 -34 2 -51 10 -51 13 0 13 15 1 35 -5
7 -3 12 5 12 9 0 9 3 -2 10 -8 5 -10 10 -5 10 6 0 11 9 12 20 1 11 -2 20 -8
20 -5 0 -9 -1 -10 -2z"/>
<path d="M9 768 c0 -2 -2 -26 -3 -54 -1 -34 2 -51 10 -51 13 0 13 15 1 35 -5
7 -3 12 5 12 9 0 9 3 -2 10 -8 5 -10 10 -5 10 6 0 11 9 12 20 1 11 -2 20 -8
20 -5 0 -9 -1 -10 -2z"/>
<path d="M9 648 c0 -2 -2 -26 -3 -54 -1 -34 2 -51 10 -51 13 0 13 15 1 35 -5
7 -3 12 5 12 9 0 9 3 -2 10 -8 5 -10 10 -5 10 6 0 11 9 12 20 1 11 -2 20 -8
20 -5 0 -9 -1 -10 -2z"/>
<path d="M9 528 c0 -2 -2 -26 -3 -54 -1 -34 2 -51 10 -51 13 0 13 15 1 35 -5
7 -3 12 5 12 9 0 9 3 -2 10 -8 5 -10 10 -5 10 6 0 11 9 12 20 1 11 -2 20 -8
20 -5 0 -9 -1 -10 -2z"/>
<path d="M9 408 c0 -2 -2 -26 -3 -54 -1 -34 2 -51 10 -51 13 0 13 15 1 35 -5
7 -3 12 5 12 9 0 9 3 -2 10 -8 5 -10 10 -5 10 6 0 11 9 12 20 1 11 -2 20 -8
20 -5 0 -9 -1 -10 -2z"/>
<path d="M5 281 c-6 -11 13 -26 22 -17 4 3 0 6 -8 6 -11 0 -11 2 1 10 9 6 10
10 3 10 -6 0 -14 -4 -18 -9z"/>
<path d="M2542 221 c-11 -6 -10 -10 0 -19 11 -8 14 -7 14 9 0 10 0 19 -1 19 0
0 -6 -4 -13 -9z"/>
</g>
</svg>
