<svg xmlns="http://www.w3.org/2000/svg" xmlns:xlink="http://www.w3.org/1999/xlink" viewBox="0 0 1185.78 201.82"><defs><style>.cls-1{fill:none;}.cls-2,.cls-6{fill:#061b30;}.cls-3{fill:url(#Dégradé_sans_nom_40);}.cls-4{fill:url(#Dégradé_sans_nom_40-2);}.cls-5{fill:url(#Dégradé_sans_nom_40-3);}.cls-6{stroke:#061b30;stroke-miterlimit:10;stroke-width:3px;}.cls-7{fill:url(#Dégradé_sans_nom_40-4);}.cls-8{fill:url(#Dégradé_sans_nom_40-5);}.cls-9{fill:url(#Dégradé_sans_nom_40-6);}.cls-10{fill:url(#Dégradé_sans_nom_40-7);}.cls-11{fill:url(#Dégradé_sans_nom_40-8);}</style><linearGradient id="Dégradé_sans_nom_40" x1="1246.58" y1="22.55" x2="1028.79" y2="101.82" gradientUnits="userSpaceOnUse"><stop offset="0" stop-color="#00aefe"/><stop offset="0.5" stop-color="#00acfd"/><stop offset="0.67" stop-color="#00a5fa"/><stop offset="0.8" stop-color="#019af4"/><stop offset="0.9" stop-color="#0289ed"/><stop offset="0.99" stop-color="#0373e2"/><stop offset="1" stop-color="#0370e1"/></linearGradient><linearGradient id="Dégradé_sans_nom_40-2" x1="1217.6" y1="70.73" x2="1094.84" y2="115.41" xlink:href="#Dégradé_sans_nom_40"/><linearGradient id="Dégradé_sans_nom_40-3" x1="1273.72" y1="23.88" x2="1034.08" y2="111.11" xlink:href="#Dégradé_sans_nom_40"/><linearGradient id="Dégradé_sans_nom_40-4" x1="1135.09" y1="59.6" x2="1130.79" y2="61.17" xlink:href="#Dégradé_sans_nom_40"/><linearGradient id="Dégradé_sans_nom_40-5" x1="1135.09" y1="66.6" x2="1130.79" y2="68.17" xlink:href="#Dégradé_sans_nom_40"/><linearGradient id="Dégradé_sans_nom_40-6" x1="1221.6" y1="38.21" x2="1080.73" y2="89.48" xlink:href="#Dégradé_sans_nom_40"/><linearGradient id="Dégradé_sans_nom_40-7" x1="1173.51" y1="55.71" x2="1120.72" y2="74.93" xlink:href="#Dégradé_sans_nom_40"/><linearGradient id="Dégradé_sans_nom_40-8" x1="1175.7" y1="39.48" x2="1119.46" y2="59.94" xlink:href="#Dégradé_sans_nom_40"/></defs><title>WebAppUI2_3</title><g id="Calque_2" data-name="Calque 2"><g id="Calque_1-2" data-name="Calque 1"><path class="cls-1" d="M1144.1,16h-92.41A25.7,25.7,0,0,0,1026,41.68v92.41a25.7,25.7,0,0,0,25.67,25.67h92.41a25.71,25.71,0,0,0,25.68-25.67V41.68A25.71,25.71,0,0,0,1144.1,16Zm-31,83.46q0,15.29-9.34,23.83T1080,131.84q-14.31,0-23.65-8.55T1047,99.46V43.92h16.74V98.25q0,8.37,4.3,12.8t12,4.42q7.75,0,12.06-4.42t4.31-12.8V43.92h16.74Zm35.77,30.44h-17V67.8h-.09"/><path class="cls-2" d="M352.61,47.92q-21.64,0-37.53,16t-15.9,41.18q0,26.5,16.34,42.29t39.74,15.79q19.22,0,32.13-9.72a46.79,46.79,0,0,0,17.33-24.73l-24.51-7.29q-6,16.56-24.73,16.56a27.62,27.62,0,0,1-19-7.06,24.1,24.1,0,0,1-8.39-17.67h77.73l.22-1.54c0-.89,0-2.06.11-3.53s.11-2.8.11-4Q406.27,78,392,62.93T352.61,47.92ZM328.77,93.18q.44-8.16,7.06-14.79t17.22-6.63q11.71,0,17.78,6.19a22.52,22.52,0,0,1,6.51,15.23Z"/><path class="cls-2" d="M491.28,48.36a45.13,45.13,0,0,0-20.21,4.3Q462.36,57,458.38,63.15V0H429.45V159.86h28.49V146.62q9.93,15.88,32.23,15.89,23,0,37.1-16.23T541.4,105.1q0-24.94-13.47-40.85T491.28,48.36ZM504.42,128a25.12,25.12,0,0,1-19.33,8.28A25.57,25.57,0,0,1,465.77,128q-7.83-8.28-7.83-22.63t7.72-22.53a25.64,25.64,0,0,1,19.43-8.17,25.3,25.3,0,0,1,19.33,8.17Q512,91,512,105.33T504.42,128Z"/><path class="cls-2" d="M611.18,3.31,551.12,159.86h32.23l13-35.77H660l13,35.77h33.12L646.5,3.31Zm-4.64,93L628.18,37.1l21.64,59.17Z"/><path class="cls-2" d="M785.39,48.8a44.43,44.43,0,0,0-20.54,4.53q-8.83,4.52-12.8,11.15V51.23H723.56V201.82h29.37V149.27q9.72,13.24,31.35,13.24,22.74,0,37-16.11t14.24-41.07q0-25-13.47-40.74T785.39,48.8ZM799,128a26.69,26.69,0,0,1-38.75-.11q-7.74-8.4-7.73-22.3t7.73-22.2A26.93,26.93,0,0,1,799,83.24q7.62,8.17,7.62,22.31T799,128Z"/><path class="cls-2" d="M920.52,48.8A44.36,44.36,0,0,0,900,53.33q-8.84,4.52-12.81,11.15V51.23H858.7V201.82h29.36V149.27q9.72,13.24,31.36,13.24,22.74,0,37-16.11t14.25-41.07q0-25-13.47-40.74T920.52,48.8ZM934.1,128a26.69,26.69,0,0,1-38.75-.11q-7.73-8.4-7.73-22.3t7.73-22.2a26.93,26.93,0,0,1,38.75-.11q7.62,8.17,7.62,22.31T934.1,128Z"/><path class="cls-3" d="M1096.32,98.25q0,8.37-4.31,12.8T1080,115.47q-7.65,0-12-4.42t-4.3-12.8V43.92H1047V99.46q0,15.29,9.34,23.83t23.65,8.55q14.43,0,23.77-8.55t9.34-23.83V43.92h-16.74Z"/><polyline class="cls-4" points="1148.76 67.8 1131.85 67.8 1131.85 129.91 1148.83 129.91"/><path class="cls-5" d="M1144.1,0h-92.41A41.72,41.72,0,0,0,1010,41.68v92.41a41.71,41.71,0,0,0,41.67,41.67h92.41a41.72,41.72,0,0,0,41.68-41.67V41.68A41.73,41.73,0,0,0,1144.1,0Zm25.68,134.09a25.71,25.71,0,0,1-25.68,25.67h-92.41A25.7,25.7,0,0,1,1026,134.09V41.68A25.7,25.7,0,0,1,1051.69,16h92.41a25.71,25.71,0,0,1,25.68,25.68Z"/><path class="cls-6" d="M258.9,30.16c13.64.29,27.28.17,40.92,0,1.81,0,4.46-.41,5.25-1.6,4.61-7,8.78-14.2,13.71-22.35-26.49,0-51.56-.09-76.62.17-2,0-4.64,2.05-5.74,3.9C227,26.14,217.84,42.15,208.58,58.09c-6.72,11.56-13.48,23.09-20.52,35.14L159.61,44.47l-54.15,94c-4.91-8.48-9.31-16-13.67-23.64C80.51,95.2,69.29,75.55,57.93,56c-1-1.74-2.83-4.16-4.38-4.24-8.26-.42-16.55-.2-24.81-.2a8.05,8.05,0,0,0,0,1.7Q58,104,87.46,154.67c.92,1.59,3.76,2.79,5.76,2.87,7.61.3,15.26-.21,22.86.14,4.43.21,6.75-1.33,8.87-5.19,11.38-20.66,23.06-41.15,35-62.3l28,50.74c4.63-7.5,9-14.17,13-21q24.63-42.3,49-84.77C252.09,31.24,254.6,30.07,258.9,30.16Z"/><path class="cls-6" d="M72.78,36.8c9,16.87,22.74,41.05,32.85,58.43,4.46-7.18,8-13.25,11.9-19,2.12-3.09,2-5.39.11-8.59Q100.47,39.08,83.78,10.23C81.89,7,79.75,6,76.16,6c-19.84.18-39.68.12-59.51.14-4.34,0-8.67,0-14.07,0,4,7.09,7.31,13.46,11.24,19.38a9.32,9.32,0,0,0,6.48,3.57c13.48,0,14.14-.33,31.48-.33C66.78,28.8,67.78,27.8,72.78,36.8Z"/><path class="cls-6" d="M269.68,51.67c-4.27-.24-6.33,1.5-8.34,5-10.47,18.43-21.33,36.63-31.85,55-8.43,14.76-16.57,29.69-25.7,46.09,8.05,0,14.82-.23,21.56.1,3.55.17,5.34-1.22,7-4.12Q260.76,105,289.32,56.36c.74-1.27,1.24-2.7,2.09-4.59C283.68,51.77,276.66,52.05,269.68,51.67Z"/><line class="cls-7" x1="1131.85" y1="60.8" x2="1131.76" y2="60.8"/><line class="cls-8" x1="1131.76" y1="67.8" x2="1131.85" y2="67.8"/><line class="cls-9" x1="1131.85" y1="67.8" x2="1148.76" y2="67.8"/><line class="cls-10" x1="1131.85" y1="67.8" x2="1148.76" y2="67.8"/><rect class="cls-11" x="1131.85" y="43.92" width="16.91" height="16.88" rx="8.44"/></g></g></svg>