<svg xmlns="http://www.w3.org/2000/svg" width="24" height="24.001" viewBox="0 0 24 24.001">
  <path id="Exclusion_17" data-name="Exclusion 17" d="M12,24A12,12,0,0,1,3.515,3.515,12,12,0,1,1,16.671,23.058,11.92,11.92,0,0,1,12,24ZM8.112,9.589h0l-.532.531-.459.459L5.438,12.263l-.46.458L3.3,14.4l1.682,1.682.46.46L7.12,18.229l.459.46.551.551H11.5l-.553-.551L9.262,17.005,8.8,16.546,7.12,14.864l-.459-.46.459-.459L8.8,12.263l.459-.459,1.682-1.684.532-.531H8.112Zm4.606,0h0l-.99.99-1.683,1.684-.459.458L7.9,14.4l1.683,1.682L11.269,14.4l.458-.459,1.683-1.682,2.673-2.674H12.717Zm-.2-4.826h0l0,0L17.34,9.6l-4.815,4.815h3.364l3.134-3.131L20.705,9.6,19.023,7.916,15.87,4.763Z" fill="#fff"/>
</svg>
